<?xml version="1.0" standalone="no"?><!DOCTYPE svg PUBLIC "-//W3C//DTD SVG 20010904//EN" "http://www.w3.org/TR/2001/REC-SVG-20010904/DTD/svg10.dtd"><svg xmlns="http://www.w3.org/2000/svg" version="1.0" width="2519.000000pt" height="1494.000000pt" viewBox="0 0 2519.000000 1494.000000" preserveAspectRatio="xMidYMid meet">

<g transform="translate(0.000000,1494.000000) scale(0.100000,-0.100000)" fill="#ffffff" stroke="none">
<path d="M3075 14804 c-1001 -53 -1691 -285 -2144 -719 -468 -448 -724 -1082 -781 -1930 -6 -97 -10 -2225 -10 -5997 l0 -5848 1430 0 1430 0 0 4225 0 4225 253 0 c276 0 367 8 513 45 360 91 713 373 883 705 132 257 161 438 161 1008 l0 302 -905 0 -905 0 0 443 c0 470 6 568 46 705 64 220 164 312 407 377 196 52 263 57 830 62 l527 5 0 1158 0 1158 -32 6 c-76 13 -270 27 -518 37 -146 5 -296 14 -335 19 -74 10 -730 20 -850 14z"/>
<path d="M22120 13636 l0 -1156 1470 0 1470 0 0 513 c0 553 -4 604 -55 782 -106 365 -403 709 -760 879 -105 51 -189 79 -317 109 -90 20 -120 21 -950 24 l-858 4 0 -1155z"/>
<path d="M14890 13615 l0 -1155 1470 0 1470 0 0 513 c0 562 -4 617 -60 797 -65 212 -183 403 -355 575 -215 215 -424 331 -713 397 -95 21 -113 22 -954 25 l-858 4 0 -1156z"/>
<path d="M18490 7540 l0 -7230 1470 0 1470 0 -3 6633 -2 6632 -22 93 c-67 289 -164 463 -373 673 -220 220 -422 332 -725 400 -99 23 -110 23 -957 26 l-858 4 0 -7231z m2488 4033 l-3 -248 -1012 -3 -1013 -2 0 250 0 250 1015 0 1015 0 -2 -247z m0 -790 l-3 -248 -1012 -3 -1013 -2 0 250 0 250 1015 0 1015 0 -2 -247z m2 -793 l0 -250 -1015 0 -1015 0 0 250 0 250 1015 0 1015 0 0 -250z m-2 -792 l2 -248 -1015 0 -1015 0 0 250 0 250 1013 -2 1012 -3 3 -247z m-914 -5838 c174 -26 317 -99 448 -230 74 -75 93 -102 136 -191 68 -140 86 -227 80 -383 -8 -183 -57 -311 -174 -457 -91 -114 -246 -214 -394 -255 -90 -25 -309 -26 -400 0 -493 135 -725 702 -468 1141 52 88 191 228 278 277 148 86 328 122 494 98z"/>
<path d="M9040 11729 c-1127 -60 -2045 -356 -2695 -869 -623 -493 -1020 -1088 -1200 -1800 -29 -115 -44 -187 -80 -402 l-4 -28 1409 0 1409 0 31 63 c110 216 287 395 498 505 99 52 303 120 462 156 574 126 1204 93 1879 -100 466 -133 678 -372 698 -784 7 -148 -11 -233 -73 -360 -81 -163 -259 -323 -491 -439 -324 -162 -800 -284 -1393 -356 -191 -23 -357 -50 -556 -90 -175 -36 -391 -65 -476 -65 -58 0 -380 -58 -588 -106 -498 -116 -918 -260 -1319 -455 -541 -263 -921 -537 -1164 -839 -295 -366 -485 -834 -567 -1394 -34 -231 -41 -325 -47 -626 -10 -508 28 -878 131 -1284 157 -615 465 -1115 906 -1466 331 -264 824 -524 1270 -668 306 -99 650 -169 1000 -202 546 -52 1897 19 2570 136 318 55 709 165 1020 289 171 67 528 239 667 321 474 277 874 669 1231 1204 381 571 570 1211 643 2175 16 210 25 4103 10 4448 -11 251 -24 376 -62 557 -170 831 -708 1500 -1542 1915 -674 336 -1526 518 -2642 565 -270 11 -717 11 -935 -1z m2447 -6544 c-4 -667 -6 -704 -58 -965 -183 -922 -820 -1575 -1729 -1774 -429 -94 -938 -100 -1272 -15 -239 60 -436 164 -573 303 -336 339 -450 959 -270 1475 76 219 178 405 263 482 141 126 421 283 678 378 207 77 338 112 844 222 974 212 1487 364 1995 591 l120 54 3 -60 c2 -34 1 -344 -1 -691z"/>
<path d="M22120 5920 l0 -5590 1470 0 1470 0 0 4948 c0 4296 -2 4959 -15 5037 -47 291 -179 548 -395 766 -243 245 -519 382 -843 418 -60 7 -392 11 -892 11 l-795 0 0 -5590z"/>
<path d="M14890 5900 l0 -5590 1470 0 1470 0 0 4948 c0 5437 5 5023 -60 5232 -90 291 -287 556 -558 750 -148 105 -312 177 -510 222 -95 21 -113 22 -954 25 l-858 4 0 -5591z"/>
</g>
</svg>