<?xml version="1.0" encoding="UTF-8" standalone="no"?>
<!DOCTYPE svg PUBLIC "-//W3C//DTD SVG 20010904//EN"
              "http://www.w3.org/TR/2001/REC-SVG-20010904/DTD/svg10.dtd">

<svg xmlns="http://www.w3.org/2000/svg"
     width="34.9889in" height="20.7556in"
     viewBox="0 0 3149 1868">
  <path id="Selection"
        fill="none" stroke="black" stroke-width="1"
        d="M 17.00,1830.00
           C 17.00,1830.00 17.00,943.00 17.00,943.00
             17.00,943.00 17.00,647.00 17.00,647.00
             17.00,647.00 17.00,499.00 17.00,499.00
             17.00,499.00 18.00,484.00 18.00,484.00
             18.00,484.00 18.00,353.00 18.00,353.00
             18.00,353.00 19.83,330.00 19.83,330.00
             22.96,298.69 26.69,277.48 34.63,247.00
             40.78,223.40 52.92,193.13 65.00,172.00
             77.45,150.21 92.23,129.78 110.00,112.00
             164.65,57.33 236.22,34.51 311.00,23.73
             311.00,23.73 368.00,17.91 368.00,17.91
             368.00,17.91 378.00,17.00 378.00,17.00
             378.00,17.00 394.00,17.00 394.00,17.00
             394.00,17.00 404.00,16.18 404.00,16.18
             404.00,16.18 416.00,17.00 416.00,17.00
             416.00,17.00 462.00,17.00 462.00,17.00
             462.00,17.00 474.00,17.96 474.00,17.96
             474.00,17.96 486.00,17.96 486.00,17.96
             486.00,17.96 514.00,20.00 514.00,20.00
             514.00,20.00 532.00,21.00 532.00,21.00
             532.00,21.00 559.00,22.00 559.00,22.00
             559.00,22.00 569.00,22.91 569.00,22.91
             569.00,22.91 602.00,26.00 602.00,26.00
             602.00,26.00 602.00,317.00 602.00,317.00
             602.00,317.00 522.00,317.00 522.00,317.00
             522.00,317.00 507.00,318.00 507.00,318.00
             488.62,318.03 470.19,317.80 452.00,320.75
             432.94,323.85 407.13,330.62 394.46,346.00
             381.64,361.57 376.24,388.14 376.00,408.00
             376.00,408.00 376.00,515.00 376.00,515.00
             376.00,515.00 602.00,515.00 602.00,515.00
             602.00,515.00 602.00,574.00 602.00,574.00
             602.00,574.00 601.04,586.00 601.04,586.00
             601.04,586.00 601.04,601.00 601.04,601.00
             601.04,601.00 600.09,611.00 600.09,611.00
             597.36,650.05 584.48,686.22 556.96,715.00
             545.41,727.08 534.07,737.05 520.00,746.14
             505.98,755.19 489.16,763.00 473.00,767.27
             442.49,775.31 407.60,773.00 376.00,773.00
             376.00,773.00 376.00,1830.00 376.00,1830.00
             376.00,1830.00 17.00,1830.00 17.00,1830.00 Z
           M 2765.00,18.00
           C 2765.00,18.00 2793.00,18.00 2793.00,18.00
             2793.00,18.00 2810.00,19.00 2810.00,19.00
             2810.00,19.00 2870.00,19.00 2870.00,19.00
             2870.00,19.00 2956.00,19.00 2956.00,19.00
             2956.00,19.00 2971.00,20.00 2971.00,20.00
             2971.00,20.00 2976.00,20.00 2976.00,20.00
             2993.07,20.03 3016.77,28.14 3032.00,35.75
             3042.52,41.01 3052.60,46.79 3062.00,53.90
             3086.96,72.76 3112.22,104.20 3122.66,134.00
             3128.53,150.77 3130.87,161.31 3132.09,179.00
             3132.09,179.00 3133.00,191.00 3133.00,191.00
             3133.00,191.00 3133.00,308.00 3133.00,308.00
             3133.00,308.00 2765.00,308.00 2765.00,308.00
             2765.00,308.00 2765.00,18.00 2765.00,18.00 Z
           M 1861.00,21.00
           C 1861.00,21.00 2000.00,21.00 2000.00,21.00
             2000.00,21.00 2015.00,22.00 2015.00,22.00
             2015.00,22.00 2066.00,22.00 2066.00,22.00
             2077.96,22.02 2089.54,24.31 2101.00,27.58
             2151.73,42.05 2197.42,82.91 2217.00,132.00
             2224.38,150.51 2228.97,170.01 2229.00,190.00
             2229.00,190.00 2229.00,311.00 2229.00,311.00
             2229.00,311.00 1861.00,311.00 1861.00,311.00
             1861.00,311.00 1861.00,21.00 1861.00,21.00 Z
           M 2311.00,21.00
           C 2311.00,21.00 2452.00,21.00 2452.00,21.00
             2452.00,21.00 2467.00,22.00 2467.00,22.00
             2467.00,22.00 2517.00,22.00 2517.00,22.00
             2531.43,22.02 2546.36,25.80 2560.00,30.33
             2589.46,40.12 2608.12,53.12 2630.00,75.00
             2649.19,94.19 2661.37,111.12 2670.00,137.00
             2673.74,148.21 2678.98,165.38 2679.00,177.00
             2679.00,177.00 2679.00,1830.00 2679.00,1830.00
             2679.00,1830.00 2311.00,1830.00 2311.00,1830.00
             2311.00,1830.00 2311.00,21.00 2311.00,21.00 Z
           M 2622.00,391.00
           C 2622.00,391.00 2369.00,391.00 2369.00,391.00
             2369.00,391.00 2369.00,452.00 2369.00,452.00
             2369.00,452.00 2622.00,452.00 2622.00,452.00
             2622.00,452.00 2622.00,391.00 2622.00,391.00 Z
           M 632.00,789.00
           C 637.59,746.84 648.98,704.68 666.69,666.00
             681.70,633.24 700.40,603.63 723.59,576.00
             745.08,550.38 768.51,528.07 795.00,507.65
             871.83,448.43 969.60,418.25 1065.00,406.85
             1088.79,404.00 1113.04,401.04 1137.00,401.00
             1137.00,401.00 1154.00,400.00 1154.00,400.00
             1154.00,400.00 1224.00,400.00 1224.00,400.00
             1224.00,400.00 1239.00,401.00 1239.00,401.00
             1269.08,401.35 1299.08,403.84 1329.00,406.83
             1417.34,415.66 1504.47,433.98 1584.00,474.74
             1616.14,491.22 1645.54,511.30 1672.00,535.91
             1672.00,535.91 1682.96,546.00 1682.96,546.00
             1700.81,564.58 1716.75,585.02 1730.19,607.00
             1742.41,626.98 1753.04,649.70 1760.26,672.00
             1769.69,701.14 1775.71,731.42 1777.04,762.00
             1777.04,762.00 1778.04,774.00 1778.04,774.00
             1778.04,774.00 1778.04,787.00 1778.04,787.00
             1778.04,787.00 1779.00,799.00 1779.00,799.00
             1779.00,799.00 1779.00,1060.00 1779.00,1060.00
             1779.00,1060.00 1779.00,1205.00 1779.00,1205.00
             1779.00,1205.00 1778.00,1220.00 1778.00,1220.00
             1778.00,1220.00 1778.00,1312.00 1778.00,1312.00
             1778.00,1312.00 1777.00,1329.00 1777.00,1329.00
             1776.97,1349.27 1773.22,1380.52 1770.27,1401.00
             1762.24,1456.69 1751.33,1503.52 1727.69,1555.00
             1711.32,1590.66 1685.33,1628.89 1660.25,1659.00
             1641.28,1681.77 1616.25,1707.45 1593.00,1725.79
             1562.40,1749.93 1544.35,1760.07 1510.00,1777.25
             1472.79,1795.85 1447.68,1805.82 1408.00,1818.02
             1350.13,1835.83 1301.58,1841.40 1242.00,1847.17
             1242.00,1847.17 1205.00,1850.09 1205.00,1850.09
             1205.00,1850.09 1180.00,1852.00 1180.00,1852.00
             1180.00,1852.00 1157.00,1853.00 1157.00,1853.00
             1157.00,1853.00 1141.00,1854.04 1141.00,1854.04
             1141.00,1854.04 1127.00,1854.04 1127.00,1854.04
             1127.00,1854.04 1115.00,1855.00 1115.00,1855.00
             1115.00,1855.00 1035.00,1855.00 1035.00,1855.00
             1035.00,1855.00 1023.00,1853.96 1023.00,1853.96
             1023.00,1853.96 1014.00,1853.96 1014.00,1853.96
             1014.00,1853.96 965.00,1847.41 965.00,1847.41
             901.39,1836.74 847.61,1818.39 791.00,1787.30
             758.00,1769.19 723.12,1746.27 697.04,1719.00
             657.38,1677.53 629.80,1625.22 614.85,1570.00
             606.04,1537.47 600.22,1504.61 597.91,1471.00
             597.91,1471.00 597.00,1461.00 597.00,1461.00
             597.00,1461.00 596.00,1440.00 596.00,1440.00
             596.00,1440.00 596.00,1396.00 596.00,1396.00
             596.00,1396.00 597.00,1381.00 597.00,1381.00
             597.46,1341.44 603.31,1301.06 614.42,1263.00
             622.74,1234.54 633.85,1206.44 649.20,1181.00
             686.52,1119.16 734.06,1087.19 796.00,1053.69
             858.90,1019.67 928.18,997.05 998.00,982.21
             998.00,982.21 1047.00,973.28 1047.00,973.28
             1047.00,973.28 1066.00,971.83 1066.00,971.83
             1066.00,971.83 1090.00,968.73 1090.00,968.73
             1090.00,968.73 1153.00,957.42 1153.00,957.42
             1213.83,947.98 1246.14,946.51 1308.00,928.42
             1341.68,918.58 1376.34,903.39 1401.99,878.91
             1418.57,863.08 1430.22,840.12 1430.96,817.00
             1430.96,817.00 1430.04,806.00 1430.04,806.00
             1428.63,776.84 1416.69,752.11 1393.00,734.48
             1373.95,720.30 1347.87,712.34 1325.00,706.63
             1293.05,698.64 1260.83,693.17 1228.00,690.91
             1228.00,690.91 1216.00,690.00 1216.00,690.00
             1216.00,690.00 1177.00,690.00 1177.00,690.00
             1177.00,690.00 1167.00,690.91 1167.00,690.91
             1149.80,692.11 1132.89,694.20 1116.00,697.79
             1087.30,703.89 1058.06,712.35 1034.00,729.74
             1018.50,740.95 1006.75,754.06 996.34,770.00
             996.34,770.00 985.37,788.01 985.37,788.01
             983.58,789.25 980.13,789.00 978.00,789.00
             978.00,789.00 632.00,789.00 632.00,789.00 Z
           M 2765.00,428.00
           C 2765.00,428.00 2860.00,428.00 2860.00,428.00
             2860.00,428.00 2877.00,429.00 2877.00,429.00
             2877.00,429.00 2927.00,429.00 2927.00,429.00
             2959.88,429.00 2984.04,427.32 3016.00,438.69
             3043.17,448.36 3063.80,463.77 3084.00,484.00
             3095.19,495.21 3104.68,508.12 3112.30,522.00
             3122.08,539.80 3131.97,566.54 3132.00,587.00
             3132.00,587.00 3132.00,612.00 3132.00,612.00
             3132.00,612.00 3133.00,629.00 3133.00,629.00
             3133.00,629.00 3133.00,1827.00 3133.00,1827.00
             3133.00,1827.00 2765.00,1827.00 2765.00,1827.00
             2765.00,1827.00 2765.00,428.00 2765.00,428.00 Z
           M 1861.00,431.00
           C 1861.00,431.00 1992.00,431.00 1992.00,431.00
             1992.00,431.00 2007.00,432.00 2007.00,432.00
             2007.00,432.00 2066.00,432.00 2066.00,432.00
             2078.60,432.02 2090.99,434.67 2103.00,438.28
             2152.02,453.00 2194.95,490.88 2215.28,538.00
             2220.02,548.99 2225.70,564.16 2226.96,576.00
             2226.96,576.00 2226.96,584.00 2226.96,584.00
             2226.96,584.00 2228.00,596.00 2228.00,596.00
             2228.00,596.00 2228.00,616.00 2228.00,616.00
             2228.00,616.00 2229.00,632.00 2229.00,632.00
             2229.00,632.00 2229.00,1830.00 2229.00,1830.00
             2229.00,1830.00 1861.00,1830.00 1861.00,1830.00
             1861.00,1830.00 1861.00,431.00 1861.00,431.00 Z
           M 2622.00,489.00
           C 2622.00,489.00 2369.00,489.00 2369.00,489.00
             2369.00,489.00 2369.00,551.00 2369.00,551.00
             2369.00,551.00 2574.00,551.00 2574.00,551.00
             2574.00,551.00 2589.00,550.00 2589.00,550.00
             2589.00,550.00 2622.00,550.00 2622.00,550.00
             2622.00,550.00 2622.00,489.00 2622.00,489.00 Z
           M 2622.00,588.00
           C 2622.00,588.00 2369.00,588.00 2369.00,588.00
             2369.00,588.00 2369.00,650.00 2369.00,650.00
             2369.00,650.00 2622.00,650.00 2622.00,650.00
             2622.00,650.00 2622.00,588.00 2622.00,588.00 Z
           M 2622.00,688.00
           C 2622.00,688.00 2605.00,688.00 2605.00,688.00
             2605.00,688.00 2589.00,687.00 2589.00,687.00
             2589.00,687.00 2369.00,687.00 2369.00,687.00
             2369.00,687.00 2369.00,749.00 2369.00,749.00
             2369.00,749.00 2622.00,749.00 2622.00,749.00
             2622.00,749.00 2622.00,688.00 2622.00,688.00 Z
           M 1435.00,1127.00
           C 1435.00,1127.00 1395.00,1143.99 1395.00,1143.99
             1395.00,1143.99 1332.00,1166.33 1332.00,1166.33
             1278.17,1183.88 1215.59,1197.15 1160.00,1209.42
             1116.68,1218.99 1081.74,1225.98 1041.00,1245.22
             1041.00,1245.22 1030.00,1250.31 1030.00,1250.31
             1013.91,1258.95 987.79,1273.27 976.32,1287.00
             966.19,1299.15 954.44,1324.74 949.33,1340.00
             940.78,1365.56 937.69,1385.06 938.00,1412.00
             938.00,1412.00 938.91,1422.00 938.91,1422.00
             941.98,1464.04 959.59,1509.98 994.00,1536.10
             1022.55,1557.78 1057.91,1566.49 1093.00,1569.96
             1093.00,1569.96 1102.00,1569.96 1102.00,1569.96
             1102.00,1569.96 1112.00,1571.00 1112.00,1571.00
             1205.41,1572.09 1295.87,1549.83 1360.83,1478.00
             1379.67,1457.16 1392.34,1437.00 1404.75,1412.00
             1420.16,1380.97 1430.55,1338.49 1433.96,1304.00
             1433.96,1304.00 1433.96,1294.00 1433.96,1294.00
             1433.96,1294.00 1435.00,1282.00 1435.00,1282.00
             1435.00,1282.00 1435.00,1225.00 1435.00,1225.00
             1435.00,1225.00 1436.00,1209.00 1436.00,1209.00
             1436.03,1190.22 1437.07,1142.70 1435.00,1127.00 Z
           M 2492.00,1447.28
           C 2478.47,1449.23 2473.61,1448.85 2460.00,1454.06
             2438.13,1462.43 2416.10,1483.45 2406.87,1505.00
             2386.56,1552.43 2406.53,1607.34 2453.00,1630.24
             2463.53,1635.43 2475.19,1638.86 2487.00,1639.00
             2497.36,1639.12 2508.93,1639.53 2519.00,1637.10
             2548.68,1629.95 2576.04,1604.80 2585.92,1576.00
             2589.44,1565.73 2591.05,1551.85 2591.00,1541.00
             2590.81,1500.16 2562.16,1464.61 2524.00,1452.00
             2515.60,1449.23 2500.71,1446.50 2492.00,1447.28 Z" />
</svg>
