<?xml version="1.0" standalone="no"?>
<!DOCTYPE svg PUBLIC "-//W3C//DTD SVG 20010904//EN"
 "http://www.w3.org/TR/2001/REC-SVG-20010904/DTD/svg10.dtd">
<svg version="1.0" xmlns="http://www.w3.org/2000/svg"
 width="1324.000000pt" height="1286.000000pt" viewBox="0 0 1324.000000 1286.000000"
 preserveAspectRatio="xMidYMid meet">

<g transform="translate(0.000000,1286.000000) scale(0.100000,-0.100000)"
fill="#000000" stroke="none">
<path d="M6178 12849 c-189 -11 -516 -46 -743 -80 -1220 -180 -2308 -641
-3115 -1318 -302 -253 -726 -725 -1080 -1201 -402 -541 -698 -1081 -905 -1647
-161 -442 -278 -1014 -315 -1538 -13 -184 -13 -890 0 -1125 72 -1289 535
-2514 1370 -3625 470 -625 827 -950 1465 -1332 1140 -684 2441 -1021 3757
-973 501 18 788 56 1332 176 213 47 272 56 410 64 574 32 1069 233 1516 616
253 218 506 531 619 769 21 44 55 116 76 159 49 103 175 289 267 395 143 165
286 260 508 337 135 46 312 137 422 216 268 194 555 501 786 841 339 501 588
1095 656 1568 40 274 45 813 11 1149 -50 492 -182 1036 -377 1555 -79 209
-191 469 -224 518 -33 50 -43 41 -79 -68 -65 -198 -198 -368 -365 -465 -41
-24 -76 -45 -78 -46 -1 -1 58 -118 132 -261 74 -143 188 -366 252 -495 107
-217 116 -240 109 -275 -13 -73 -109 -137 -178 -119 -37 9 -76 45 -112 100
-36 57 -413 779 -525 1007 -69 141 -71 147 -61 186 14 52 76 110 125 117 20 3
53 9 74 12 108 17 249 134 312 259 l35 70 0 145 0 145 -35 65 c-47 89 -156
197 -242 238 l-66 32 -279 -2 -278 -3 -5 -1130 c-5 -1047 -6 -1132 -22 -1162
-51 -92 -170 -109 -242 -34 -26 27 -30 40 -38 133 -6 62 -8 565 -6 1266 l4
1162 39 40 39 40 366 0 c335 0 374 -1 477 -22 62 -12 116 -18 119 -15 13 13
-25 78 -216 366 -407 614 -914 1327 -1169 1646 -296 370 -548 618 -801 787
-119 80 -378 210 -523 263 -338 124 -1285 364 -1677 424 -228 36 -517 61 -742
66 -519 11 -657 12 -780 4z m-3364 -3534 c246 -32 457 -105 503 -174 41 -61
25 -147 -35 -189 -51 -37 -88 -37 -207 3 -158 52 -233 66 -385 72 -169 7 -261
-6 -357 -52 -124 -58 -202 -157 -222 -284 -20 -126 16 -230 114 -326 79 -77
182 -138 389 -230 372 -166 557 -307 650 -496 100 -202 101 -402 5 -599 -58
-118 -169 -228 -290 -288 -169 -84 -400 -119 -615 -93 -186 22 -430 93 -494
143 -38 30 -49 57 -50 119 0 49 3 58 33 86 61 60 88 60 272 3 141 -43 249 -60
392 -60 265 0 413 72 496 240 28 56 32 75 32 145 0 69 -4 89 -32 147 -66 141
-181 229 -468 360 -319 146 -431 215 -547 336 -129 136 -178 260 -178 457 0
126 17 210 59 293 115 227 305 347 631 396 61 9 198 5 304 -9z m1533 -5 c65
-39 66 -45 74 -465 4 -209 8 -640 8 -958 l1 -577 39 -78 c48 -95 94 -149 167
-197 77 -51 158 -75 253 -75 199 0 361 117 432 311 29 79 74 120 138 127 73 7
96 -3 136 -55 33 -43 35 -50 29 -97 -20 -156 -148 -352 -298 -455 -64 -44
-179 -97 -256 -118 -100 -27 -291 -24 -395 5 -128 37 -208 85 -311 187 -101
99 -145 162 -194 275 -32 73 -33 80 -42 285 -5 115 -7 567 -6 1005 3 877 0
832 67 877 43 29 113 31 158 3z m1244 -17 c26 -25 43 -52 49 -78 5 -22 10
-325 10 -681 l0 -640 -35 -41 c-19 -22 -48 -46 -65 -53 -69 -29 -175 20 -193
89 -4 18 -7 328 -5 689 2 538 6 662 17 684 18 35 85 68 139 68 36 0 49 -6 83
-37z m1804 7 c283 -91 498 -329 546 -604 7 -42 10 -114 6 -180 -8 -186 -68
-328 -196 -468 -123 -134 -245 -206 -406 -239 -152 -31 -221 -23 -274 35 -19
20 -26 40 -29 85 -4 57 -3 61 34 101 38 40 44 42 157 65 65 13 142 35 172 49
68 34 170 142 210 221 28 57 29 66 30 191 0 129 0 131 -35 199 -67 133 -204
240 -339 265 -29 5 -163 10 -297 10 l-244 0 0 -627 c0 -346 -3 -867 -7 -1158
l-6 -531 -44 -33 c-53 -41 -111 -50 -166 -26 -77 32 -72 -64 -72 1346 0 1203
1 1258 18 1277 48 53 51 53 477 49 377 -4 398 -5 465 -27z m2824 -16 c38 -43
41 -51 41 -105 0 -51 -4 -63 -31 -93 -17 -20 -47 -41 -67 -47 -25 -8 -212 -13
-579 -16 l-543 -5 0 -458 0 -458 543 -5 c367 -3 554 -8 579 -16 20 -6 50 -27
67 -47 27 -30 31 -42 31 -92 0 -45 -6 -65 -25 -94 -40 -58 -51 -59 -766 -56
-591 3 -636 4 -667 21 -69 38 -67 17 -67 752 l0 660 23 36 c21 34 48 51 97 62
11 3 313 5 672 6 l651 1 41 -46z m-1254 -1903 c56 -31 69 -76 73 -262 l4 -167
547 -4 c604 -5 607 -5 648 -67 32 -47 32 -125 0 -172 -44 -66 -17 -64 -715
-67 -423 -2 -645 1 -672 8 -61 16 -97 52 -109 111 -6 28 -11 153 -11 282 0
206 3 237 19 274 38 83 131 111 216 64z m-5724 -1526 c15 -4 43 -24 63 -44
l37 -38 -3 -664 c-3 -600 -5 -668 -20 -702 -41 -90 -196 -90 -255 0 -17 25
-18 71 -21 685 -4 654 -4 658 17 692 12 18 28 39 36 46 21 18 87 40 105 35 8
-2 27 -7 41 -10z m1837 -16 c93 -24 148 -48 232 -104 131 -87 244 -234 297
-387 40 -114 45 -242 40 -918 -4 -684 -2 -661 -76 -815 -91 -192 -273 -349
-477 -412 -47 -14 -91 -18 -214 -17 -142 0 -162 2 -232 27 -219 76 -394 245
-478 464 -17 43 -35 88 -40 101 -12 29 -13 1289 -1 1423 26 283 265 561 551
639 121 33 266 33 398 -1z m2823 -9 c93 -98 64 -225 -59 -260 -20 -5 -140 -10
-269 -10 l-233 0 0 -1141 0 -1140 -25 -34 c-63 -82 -173 -87 -245 -11 l-24 27
-4 1149 -5 1150 -192 0 c-105 0 -225 3 -266 7 -72 6 -75 7 -111 50 -33 39 -38
51 -38 95 0 56 26 110 63 130 42 22 138 25 751 27 l619 1 38 -40z m2287 17
c47 -26 72 -72 72 -133 0 -43 -6 -58 -34 -96 l-34 -45 -153 -6 c-84 -4 -343
-7 -577 -7 l-424 0 4 -459 c2 -253 6 -463 10 -466 3 -3 261 -9 572 -12 l567
-6 29 -33 c58 -67 58 -152 1 -216 l-29 -32 -173 -9 c-96 -4 -406 -4 -690 0
-497 8 -518 9 -539 28 -57 52 -55 22 -55 740 0 594 2 663 16 690 25 44 54 67
97 76 20 4 323 6 672 6 591 -2 637 -3 668 -20z m-8162 -3 c46 -22 58 -44 539
-974 164 -316 390 -752 502 -969 294 -565 298 -577 250 -649 -62 -95 -179 -95
-250 0 -14 18 -188 348 -387 733 -423 817 -538 1035 -555 1053 -17 19 -25
-335 -25 -1125 l0 -641 -25 -30 c-73 -88 -193 -79 -249 18 -21 35 -21 47 -24
1070 -2 569 1 1129 6 1243 10 225 15 245 73 274 34 18 105 16 145 -3z m6935
-1925 c63 -32 72 -63 77 -266 l4 -173 532 0 c538 0 602 -4 639 -38 73 -66 60
-204 -23 -243 -14 -6 -74 -15 -135 -20 -147 -11 -947 -11 -1108 0 -214 15
-212 11 -212 381 0 313 2 321 77 359 54 26 98 27 149 0z"/>
<path d="M4790 5556 c-128 -28 -268 -137 -321 -250 -16 -33 -33 -92 -39 -131
-13 -94 -13 -1229 0 -1315 23 -142 128 -277 265 -342 126 -59 301 -48 424 25
72 44 153 133 193 215 l33 67 3 689 2 689 -41 85 c-70 145 -184 235 -338 268
-78 16 -108 16 -181 0z"/>
<path d="M11920 1620 c-94 -25 -221 -87 -283 -139 -160 -134 -206 -269 -194
-576 10 -256 42 -333 172 -413 39 -23 95 -63 125 -89 70 -59 116 -79 213 -92
291 -40 451 22 688 266 63 65 105 118 125 158 26 54 29 69 28 155 -2 165 -86
410 -178 518 -70 84 -184 158 -307 202 -92 33 -284 38 -389 10z"/>
</g>
</svg>
